
<svg xmlns="http://www.w3.org/2000/svg" version="1.1" xmlns:xlink="http://www.w3.org/1999/xlink" preserveAspectRatio="none" x="0px" y="0px" width="640px" height="480px" viewBox="0 0 640 480">
<defs>
<g id="Layer0_0_FILL">
<path fill="#0A66C2" stroke="none" d="
M 460.8 42.15
Q 460.8 29.75 452 20.95 443.2 12.15 430.8 12.15
L 34.8 12.15
Q 22.4 12.15 13.6 20.95 4.8 29.75 4.8 42.15
L 4.8 438.15
Q 4.8 450.55 13.6 459.35 22.4 468.15 34.8 468.15
L 430.8 468.15
Q 443.2 468.15 452 459.35 460.8 450.55 460.8 438.15
L 460.8 42.15
M 369.15 205.05
Q 389.5 230.7 389.5 270.55
L 389.5 403.1 323.45 403.1 323.45 280.95
Q 323.45 262.2 313.3 249.25 302.9 236.3 288.2 236.3 270.4 236.3 259 252.8 247.55 269.05 247.55 294.95
L 247.55 403.1 182.55 403.1 182.55 184.75 247.55 184.75 247.55 210.65
Q 280.8 179.4 317.4 179.4 348.6 179.4 369.15 205.05
M 109 76.35
Q 125.75 76.35 137.7 88.3 149.65 100.25 149.65 117 149.65 133.75 137.7 145.7 125.75 157.6 109 157.6 92.25 157.6 80.3 145.7 68.4 133.75 68.4 117 68.4 100.25 80.3 88.3 92.25 76.35 109 76.35
M 76.75 180.75
L 141.75 180.75 141.75 399.1 76.75 399.1 76.75 180.75
M 535.95 382.95
L 545.85 382.95 545.85 351.15 568.2 351.15 583.65 382.95 594.4 382.95 577.65 349.85
Q 583.25 349 586.25 346 591.85 340.4 591.85 330.5 591.85 320.65 586.25 315.05 580.65 309.45 572.05 309.45
L 535.95 309.45 535.95 382.95
M 545.85 342.95
L 545.85 317.6 569.9 317.6
Q 574.65 317.6 578.1 321.05 581.5 324.5 581.5 330.5 581.5 336.95 578.5 339.95 575.5 342.95 571.2 342.95
L 545.85 342.95 Z"/>
</g>

<path id="Layer0_0_1_STROKES" stroke="#046AC7" stroke-width="7" stroke-linejoin="round" stroke-linecap="round" fill="none" d="
M 625 343.95
Q 625 370.9 605.95 389.9 586.95 408.95 560 408.95 533.05 408.95 514 389.9 495 370.9 495 343.95 495 317 514 298 533.05 278.95 560 278.95 586.95 278.95 605.95 298 625 317 625 343.95 Z"/>
</defs>

<g transform="matrix( 1, 0, 0, 1, 0,0) ">
<use xlink:href="#Layer0_0_FILL"/>

<use xlink:href="#Layer0_0_1_STROKES"/>
</g>
</svg>
