
<svg xmlns="http://www.w3.org/2000/svg" version="1.1" xmlns:xlink="http://www.w3.org/1999/xlink" preserveAspectRatio="none" x="0px" y="0px" width="60px" height="60px" viewBox="0 0 60 60">
<defs>
<g id="Layer0_0_chat">
<path fill="#000000" stroke="none" class="effect-path" d="
M 54.3 21.15
Q 54 22.25 54 23.2 54 31.35 46.75 37.1 39.5 42.85 29.35 42.85 24.7 42.85 22.6 42.55 28 46.45 36.55 46.45 41.27578125 46.45 45.3 45.2 48.69765625 48.6541015625 57.85 49.35 52.7916015625 44.527734375 55.05 39.4 58.5666015625 36.30390625 58.85 31.25 59.15 25.9 54.3 21.15
M 51.35 22.4
Q 51.35 15.05 44.05 9.85 36.75 4.65 26.45 4.65 16.15 4.65 8.85 9.85 1.55 15.05 1.55 22.4 1.55 29.703515625 8.75 34.85 10.206640625 41.0357421875 5.25 46.9 14.62578125 44.8798828125 20.1 39.6 23.1384765625 40.15 26.45 40.15 36.75 40.15 44.05 34.95 51.35 29.75 51.35 22.4
M 23.9 23.4
Q 23.9 22.25 24.7 21.4 25.55 20.6 26.7 20.6 27.85 20.6 28.65 21.4 29.5 22.25 29.5 23.4 29.5 24.55 28.65 25.35 27.85 26.2 26.7 26.2 25.55 26.2 24.7 25.35 23.9 24.55 23.9 23.4
M 20.5 21.4
Q 21.35 22.25 21.35 23.4 21.35 24.55 20.5 25.35 19.7 26.2 18.55 26.2 17.4 26.2 16.55 25.35 15.75 24.55 15.75 23.4 15.75 22.25 16.55 21.4 17.4 20.6 18.55 20.6 19.7 20.6 20.5 21.4
M 32.25 23.4
Q 32.25 22.25 33.05 21.4 33.9 20.6 35.05 20.6 36.2 20.6 37 21.4 37.85 22.25 37.85 23.4 37.85 24.55 37 25.35 36.2 26.2 35.05 26.2 33.9 26.2 33.05 25.35 32.25 24.55 32.25 23.4 Z"/>
</g>
</defs>

<g transform="matrix( 1, 0, 0, 1, 0,0) ">
<use xlink:href="#Layer0_0_chat"/>
</g>
</svg>
