
<svg xmlns="http://www.w3.org/2000/svg" version="1.1" xmlns:xlink="http://www.w3.org/1999/xlink" preserveAspectRatio="none" x="0px" y="0px" width="60px" height="60px" viewBox="0 0 60 60">
<defs>
<g id="Layer0_0_headerInfo">
<path class='effect-fill' fill="#000000" stroke="none" d="
M 33.05 28.35
Q 33.05 28.2 33.05 27.7 33.1 27.2 33.1 26.9 33.1 25.1 32 25.1 31.5 25.1 30.5 25.25 29.45 25.4 28.95 25.4 28.5 25.4 27.6 25.2 26.65 25 26.15 25 25.55 25 25.15 25.35 24.7 25.65 24.7 26.2 24.7 26.7 25 27 25.2 27.35 26.25 27.55 27.25 27.75 27.8 28.15 28.3 28.55 28.3 29.8
L 28.3 39.7
Q 28.3 41.7 27.9 42.25 27.45 42.75 26.4 42.95 25.3 43.1 25.05 43.4 24.8 43.65 24.8 44.05 24.8 44.7 25.3 45.1 25.75 45.45 26.4 45.45 27.1 45.45 28.45 45.25 29.8 45 30.5 45 31.2 45 32.7 45.15 34.15 45.35 34.9 45.35 36.6 45.35 36.6 44.4 36.6 43.6 36.25 43.4 35.85 43.15 34.95 43.05 34.1 42.9 33.55 42.45 33.05 42 33.05 40.55
L 33.05 28.35
M 33 16.1
Q 32 15.15 30.65 15.15 29.4 15.15 28.45 16.05 27.5 16.95 27.5 18.2 27.5 19.45 28.45 20.4 29.4 21.3 30.75 21.3 32 21.3 33 20.45 33.95 19.6 33.95 18.4 33.95 17.1 33 16.1 Z"/>
</g>
</defs>

<g transform="matrix( 1, 0, 0, 1, 0,0) ">
<use xlink:href="#Layer0_0_headerInfo"/>
</g>
</svg>
