
<svg xmlns="http://www.w3.org/2000/svg" version="1.1" xmlns:xlink="http://www.w3.org/1999/xlink" preserveAspectRatio="none" x="0px" y="0px" width="60px" height="60px" viewBox="0 0 60 60">
<defs>
<path id="speaker_path_body" class='effect-stroke' stroke="#000000" stroke-width="3" stroke-linejoin="round" stroke-linecap="round" fill="none" d="
M 12 35.35
L 20.1 35.35 31.1 46.35 31.1 13.65 20.75 24 12.8 24
M 11.6 24.4
L 11.6 35.75"/>

<path id="speaker_path_wave" class='effect-stroke' stroke="#000000" stroke-width="3" stroke-linejoin="round" stroke-linecap="round" fill="none" d="
M 39.55 18.25
Q 42.45 19 44.75 21.3 48.4 24.95 48.4 30 48.4 35.05 44.75 38.55 42.5 40.9 39.55 41.8
M 37.25 22.9
Q 38.95 23.35 40.45 24.75 42.65 27.05 42.65 30 42.65 33.05 40.45 35.25 39 36.6 37.25 37.2"/>

<path id="speaker_path_mute" class='effect-stroke' stroke="#000000" stroke-width="3" stroke-linejoin="round" stroke-linecap="round" fill="none" d="
M 46.4 23.75
L 41.4 28.75 46.4 33.75
M 36.4 23.75
L 41.4 28.75 36.4 33.75"/>
</defs>

<g transform="matrix( 1, 0, 0, 1, 0,0) ">
<use xlink:href="#speaker_path_body"/>
</g>

<g transform="matrix( 1, 0, 0, 1, 0,0) ">
<use xlink:href="#speaker_path_wave"/>
</g>

<g transform="matrix( 1, 0, 0, 1, 1,1) ">
<use xlink:href="#speaker_path_mute"/>
</g>
</svg>
