<svg xmlns="http://www.w3.org/2000/svg" width="32.408" height="120.156" viewBox="0 0 32.408 120.156">
  <g id="Group_4143" data-name="Group 4143" transform="translate(-3162.527 -328.36)">
    <g id="mouse" transform="translate(3162.527 362.852)">
      <g id="Group_25" data-name="Group 25" transform="translate(0)">
        <path id="Path_26" data-name="Path 26" d="M104.2,0A16.222,16.222,0,0,0,88,16.2V34.966a16.2,16.2,0,1,0,32.408,0V16.2A16.222,16.222,0,0,0,104.2,0Zm1.706,8.528v5.117a1.706,1.706,0,0,1-3.411,0V8.528a1.706,1.706,0,0,1,3.411,0ZM89.706,16.2A14.5,14.5,0,0,1,103.351,1.749V5.238a3.412,3.412,0,0,0-2.559,3.29v5.117a3.412,3.412,0,0,0,2.559,3.29v3.532H89.706Zm29,18.762a14.5,14.5,0,1,1-29,0V22.174h29Zm0-14.5H105.057V16.936a3.411,3.411,0,0,0,2.559-3.29V8.528a3.411,3.411,0,0,0-2.559-3.29V1.749A14.5,14.5,0,0,1,118.7,16.2Z" transform="translate(-88)" fill="#525047"/>
      </g>
    </g>
    <path id="Icon_awesome-arrow-left" data-name="Icon awesome-arrow-left" d="M14.4,22.781l-1.241,1.241a1.336,1.336,0,0,1-1.9,0L.394,13.159a1.336,1.336,0,0,1,0-1.9L11.263.394a1.336,1.336,0,0,1,1.9,0L14.4,1.635a1.343,1.343,0,0,1-.022,1.918L7.64,9.972H23.709a1.339,1.339,0,0,1,1.342,1.342V13.1a1.339,1.339,0,0,1-1.342,1.342H7.64l6.737,6.419A1.334,1.334,0,0,1,14.4,22.781Z" transform="translate(3190.939 328.36) rotate(90)" fill="#525047"/>
    <path id="Icon_awesome-arrow-left-2" data-name="Icon awesome-arrow-left" d="M10.651,22.781l1.241,1.241a1.336,1.336,0,0,0,1.9,0L24.657,13.159a1.336,1.336,0,0,0,0-1.9L13.788.394a1.336,1.336,0,0,0-1.9,0L10.651,1.635a1.343,1.343,0,0,0,.022,1.918l6.737,6.419H1.342A1.339,1.339,0,0,0,0,11.314V13.1a1.339,1.339,0,0,0,1.342,1.342H17.411l-6.737,6.419A1.334,1.334,0,0,0,10.651,22.781Z" transform="translate(3190.939 423.465) rotate(90)" fill="#525047"/>
  </g>
</svg>
