<svg xmlns="http://www.w3.org/2000/svg" width="109.775" height="51.652" viewBox="0 0 109.775 51.652">
  <g id="Group_4142" data-name="Group 4142" transform="translate(-3123.997 -363.177)">
    <g id="mouse" transform="translate(3162.527 363.177)">
      <g id="Group_25" data-name="Group 25" transform="translate(0)">
        <path id="Path_26" data-name="Path 26" d="M104.356,0A16.375,16.375,0,0,0,88,16.356V35.3a16.356,16.356,0,1,0,32.713,0V16.356A16.375,16.375,0,0,0,104.356,0Zm1.722,8.609v5.165a1.722,1.722,0,0,1-3.443,0V8.609a1.722,1.722,0,0,1,3.443,0ZM89.722,16.356A14.641,14.641,0,0,1,103.5,1.766V5.287a3.444,3.444,0,0,0-2.583,3.321v5.165A3.444,3.444,0,0,0,103.5,17.1v3.566H89.722ZM118.991,35.3a14.635,14.635,0,1,1-29.269,0V22.383h29.269Zm0-14.635H105.217V17.1a3.444,3.444,0,0,0,2.583-3.321V8.609a3.444,3.444,0,0,0-2.583-3.321V1.766a14.641,14.641,0,0,1,13.774,14.591Z" transform="translate(-88)" fill="#525047"/>
      </g>
    </g>
    <path id="Icon_awesome-arrow-left" data-name="Icon awesome-arrow-left" d="M14.532,25.643,13.279,26.9a1.349,1.349,0,0,1-1.913,0L.394,15.93a1.349,1.349,0,0,1,0-1.913L11.366,3.045a1.349,1.349,0,0,1,1.913,0L14.532,4.3a1.356,1.356,0,0,1-.023,1.936l-6.8,6.479h16.22a1.351,1.351,0,0,1,1.354,1.354v1.806a1.351,1.351,0,0,1-1.354,1.354H7.709l6.8,6.479A1.346,1.346,0,0,1,14.532,25.643Z" transform="translate(3124 374.033)" fill="#525047"/>
    <path id="Icon_awesome-arrow-left-2" data-name="Icon awesome-arrow-left" d="M10.748,25.643,12,26.9a1.349,1.349,0,0,0,1.913,0L24.885,15.93a1.349,1.349,0,0,0,0-1.913L13.914,3.045a1.349,1.349,0,0,0-1.913,0L10.748,4.3a1.356,1.356,0,0,0,.023,1.936l6.8,6.479H1.351A1.351,1.351,0,0,0,0,14.067v1.806a1.351,1.351,0,0,0,1.354,1.354h16.22l-6.8,6.479A1.346,1.346,0,0,0,10.748,25.643Z" transform="translate(3208.488 374.033)" fill="#525047"/>
  </g>
</svg>
